<svg width="174" height="58" viewBox="0 0 174 58" fill="none" xmlns="http://www.w3.org/2000/svg">
<path d="M38.0656 26.098V41.691C35.875 43.241 33.5396 44.4293 31.0596 45.256C28.5796 46.0827 25.7896 46.496 22.6896 46.496C19.2176 46.496 16.097 45.969 13.3276 44.915C10.5583 43.8403 8.19197 42.3317 6.22864 40.389C4.28597 38.4257 2.78764 36.0593 1.73364 33.29C0.700308 30.5207 0.183641 27.4413 0.183641 24.052C0.183641 20.6627 0.689974 17.5937 1.70264 14.845C2.73597 12.0757 4.20331 9.71967 6.10464 7.777C8.02664 5.81366 10.3413 4.305 13.0486 3.251C15.756 2.17633 18.8043 1.639 22.1936 1.639C23.8676 1.639 25.4073 1.75266 26.8126 1.98C28.2386 2.20733 29.5613 2.54833 30.7806 3.003C32 3.437 33.1366 3.98466 34.1906 4.646C35.2446 5.28666 36.2573 6.03066 37.2286 6.878L36.3606 8.242C36.0713 8.738 35.6373 8.85167 35.0586 8.583C34.7486 8.459 34.3043 8.16967 33.7256 7.715C33.147 7.26033 32.3513 6.785 31.3386 6.289C30.326 5.793 29.0653 5.34866 27.5566 4.956C26.0686 4.56333 24.25 4.367 22.1006 4.367C19.2486 4.367 16.6653 4.82167 14.3506 5.731C12.0566 6.64033 10.0933 7.94233 8.46064 9.637C6.84864 11.3317 5.59831 13.3983 4.70964 15.837C3.84164 18.2757 3.40764 21.014 3.40764 24.052C3.40764 27.1313 3.84164 29.9007 4.70964 32.36C5.59831 34.8193 6.86931 36.9067 8.52264 38.622C10.1966 40.3373 12.222 41.6497 14.5986 42.559C16.9753 43.4683 19.6516 43.923 22.6276 43.923C23.9296 43.923 25.1283 43.8403 26.2236 43.675C27.3396 43.5097 28.3936 43.2823 29.3856 42.993C30.3983 42.683 31.3696 42.311 32.2996 41.877C33.2503 41.4223 34.2113 40.916 35.1826 40.358V28.547H26.7816C26.5543 28.547 26.358 28.4747 26.1926 28.33C26.048 28.1853 25.9756 28.02 25.9756 27.834V26.098H38.0656ZM68.4466 27.462C68.4466 25.8087 68.2089 24.331 67.7336 23.029C67.2789 21.7063 66.6279 20.5903 65.7806 19.681C64.9333 18.7717 63.9206 18.0793 62.7426 17.604C61.5853 17.108 60.3039 16.86 58.8986 16.86C57.3073 16.86 55.8813 17.108 54.6206 17.604C53.3599 18.1 52.2646 18.813 51.3346 19.743C50.4253 20.673 49.6916 21.789 49.1336 23.091C48.5756 24.393 48.2036 25.85 48.0176 27.462H68.4466ZM47.8626 29.353V29.942C47.8626 32.2567 48.1313 34.2923 48.6686 36.049C49.2059 37.8057 49.9706 39.2833 50.9626 40.482C51.9546 41.66 53.1533 42.5487 54.5586 43.148C55.9639 43.7473 57.5346 44.047 59.2706 44.047C60.8206 44.047 62.1639 43.8817 63.3006 43.551C64.4373 43.1997 65.3879 42.8173 66.1526 42.404C66.9379 41.97 67.5579 41.5877 68.0126 41.257C68.4673 40.9057 68.7979 40.73 69.0046 40.73C69.2733 40.73 69.4799 40.8333 69.6246 41.04L70.4306 42.032C69.9346 42.652 69.2733 43.2307 68.4466 43.768C67.6406 44.3053 66.7313 44.7703 65.7186 45.163C64.7266 45.535 63.6519 45.8347 62.4946 46.062C61.3579 46.2893 60.2109 46.403 59.0536 46.403C56.9456 46.403 55.0236 46.0413 53.2876 45.318C51.5516 44.574 50.0636 43.4993 48.8236 42.094C47.5836 40.6887 46.6226 38.9733 45.9406 36.948C45.2793 34.902 44.9486 32.5667 44.9486 29.942C44.9486 27.7307 45.2586 25.695 45.8786 23.835C46.5193 21.9543 47.4286 20.3423 48.6066 18.999C49.8053 17.635 51.2623 16.5707 52.9776 15.806C54.7136 15.0413 56.6769 14.659 58.8676 14.659C60.6036 14.659 62.2156 14.9587 63.7036 15.558C65.1916 16.1573 66.4833 17.0357 67.5786 18.193C68.6739 19.3297 69.5316 20.735 70.1516 22.409C70.7923 24.083 71.1126 26.005 71.1126 28.175C71.1126 28.6297 71.0506 28.9397 70.9266 29.105C70.8026 29.2703 70.5959 29.353 70.3066 29.353H47.8626ZM82.4266 15.155V46H79.4816V15.155H82.4266ZM83.6976 4.522C83.6976 4.894 83.615 5.24533 83.4496 5.576C83.305 5.886 83.1086 6.165 82.8606 6.413C82.6126 6.661 82.3233 6.85733 81.9926 7.002C81.662 7.14667 81.3106 7.219 80.9386 7.219C80.5666 7.219 80.2153 7.14667 79.8846 7.002C79.554 6.85733 79.2646 6.661 79.0166 6.413C78.7686 6.165 78.5723 5.886 78.4276 5.576C78.283 5.24533 78.2106 4.894 78.2106 4.522C78.2106 4.15 78.283 3.79866 78.4276 3.468C78.5723 3.11666 78.7686 2.817 79.0166 2.569C79.2646 2.321 79.554 2.12466 79.8846 1.98C80.2153 1.83533 80.5666 1.763 80.9386 1.763C81.3106 1.763 81.662 1.83533 81.9926 1.98C82.3233 2.12466 82.6126 2.321 82.8606 2.569C83.1086 2.817 83.305 3.11666 83.4496 3.468C83.615 3.79866 83.6976 4.15 83.6976 4.522ZM103.02 32.36C104.343 32.36 105.521 32.174 106.554 31.802C107.588 31.4093 108.456 30.872 109.158 30.19C109.861 29.508 110.398 28.6917 110.77 27.741C111.142 26.7903 111.328 25.7363 111.328 24.579C111.328 23.4217 111.132 22.3677 110.739 21.417C110.367 20.4457 109.82 19.619 109.096 18.937C108.394 18.255 107.526 17.728 106.492 17.356C105.48 16.984 104.322 16.798 103.02 16.798C101.718 16.798 100.551 16.984 99.5173 17.356C98.5047 17.728 97.6367 18.255 96.9133 18.937C96.2107 19.619 95.6733 20.4457 95.3013 21.417C94.9293 22.3677 94.7433 23.4217 94.7433 24.579C94.7433 25.7363 94.9293 26.7903 95.3013 27.741C95.6733 28.6917 96.2107 29.508 96.9133 30.19C97.6367 30.872 98.5047 31.4093 99.5173 31.802C100.551 32.174 101.718 32.36 103.02 32.36ZM114.552 48.077C114.552 47.1057 114.294 46.3307 113.777 45.752C113.281 45.1527 112.61 44.6877 111.762 44.357C110.915 44.0263 109.933 43.799 108.817 43.675C107.722 43.5303 106.565 43.427 105.345 43.365C104.147 43.303 102.938 43.241 101.718 43.179C100.499 43.117 99.352 42.993 98.2773 42.807C97.492 43.117 96.7687 43.4787 96.1073 43.892C95.446 44.2847 94.8777 44.7393 94.4023 45.256C93.927 45.7727 93.555 46.3307 93.2863 46.93C93.0177 47.55 92.8833 48.2113 92.8833 48.914C92.8833 49.8233 93.1107 50.6603 93.5653 51.425C94.0407 52.2103 94.7227 52.882 95.6113 53.44C96.5207 54.0187 97.6263 54.4733 98.9283 54.804C100.23 55.1347 101.729 55.3 103.423 55.3C104.994 55.3 106.451 55.1243 107.794 54.773C109.158 54.4217 110.336 53.9257 111.328 53.285C112.341 52.6443 113.126 51.8797 113.684 50.991C114.263 50.1023 114.552 49.131 114.552 48.077ZM117.776 16.519V17.542C117.776 17.9967 117.487 18.2757 116.908 18.379L112.196 18.72C112.775 19.5053 113.219 20.3837 113.529 21.355C113.839 22.3263 113.994 23.3803 113.994 24.517C113.994 26.005 113.726 27.3587 113.188 28.578C112.672 29.7767 111.928 30.81 110.956 31.678C110.006 32.5253 108.848 33.1867 107.484 33.662C106.141 34.1373 104.653 34.375 103.02 34.375C101.264 34.375 99.662 34.1063 98.2153 33.569C97.3473 34.065 96.655 34.654 96.1383 35.336C95.6423 35.9973 95.3943 36.6587 95.3943 37.32C95.3943 38.2087 95.7043 38.8907 96.3243 39.366C96.965 39.8413 97.7917 40.1927 98.8043 40.42C99.8377 40.6267 101.005 40.761 102.307 40.823C103.63 40.885 104.973 40.9573 106.337 41.04C107.701 41.102 109.034 41.226 110.336 41.412C111.659 41.598 112.827 41.9287 113.839 42.404C114.873 42.8587 115.699 43.5097 116.319 44.357C116.96 45.1837 117.28 46.2893 117.28 47.674C117.28 48.9553 116.96 50.185 116.319 51.363C115.679 52.541 114.749 53.5847 113.529 54.494C112.331 55.4033 110.874 56.1267 109.158 56.664C107.443 57.222 105.521 57.501 103.392 57.501C101.222 57.501 99.321 57.2737 97.6883 56.819C96.0557 56.385 94.6813 55.7857 93.5653 55.021C92.47 54.277 91.6433 53.409 91.0853 52.417C90.5273 51.425 90.2483 50.371 90.2483 49.255C90.2483 47.6223 90.7857 46.2273 91.8603 45.07C92.935 43.892 94.4023 42.9723 96.2623 42.311C95.229 41.9597 94.392 41.4533 93.7513 40.792C93.1313 40.11 92.8213 39.1903 92.8213 38.033C92.8213 37.599 92.904 37.1443 93.0693 36.669C93.2347 36.1937 93.4827 35.7287 93.8133 35.274C94.144 34.7987 94.547 34.3543 95.0223 33.941C95.4977 33.5277 96.035 33.1557 96.6343 32.825C95.167 31.9777 94.02 30.8513 93.1933 29.446C92.3873 28.0407 91.9843 26.3977 91.9843 24.517C91.9843 23.029 92.2427 21.6857 92.7593 20.487C93.2967 19.2677 94.051 18.224 95.0223 17.356C95.9937 16.488 97.151 15.8163 98.4943 15.341C99.8583 14.8657 101.367 14.628 103.02 14.628C104.384 14.628 105.635 14.7933 106.771 15.124C107.929 15.4547 108.962 15.9197 109.871 16.519H117.776ZM127.587 20.363C129.013 18.627 130.636 17.2423 132.454 16.209C134.294 15.1757 136.35 14.659 138.623 14.659C140.318 14.659 141.806 14.9277 143.087 15.465C144.389 16.0023 145.464 16.7773 146.311 17.79C147.159 18.8027 147.799 20.022 148.233 21.448C148.667 22.874 148.884 24.486 148.884 26.284V46H145.908V26.284C145.908 23.3907 145.247 21.1277 143.924 19.495C142.602 17.8417 140.587 17.015 137.879 17.015C135.875 17.015 133.994 17.5317 132.237 18.565C130.501 19.5777 128.951 20.9933 127.587 22.812V46H124.611V0.894999H127.587V20.363ZM166.707 46.496C164.62 46.496 162.987 45.9173 161.809 44.76C160.652 43.6027 160.073 41.815 160.073 39.397V18.317H155.64C155.413 18.317 155.227 18.255 155.082 18.131C154.938 18.007 154.865 17.8313 154.865 17.604V16.457L160.135 16.085L160.879 5.049C160.921 4.863 161.003 4.69767 161.127 4.553C161.251 4.40833 161.427 4.336 161.654 4.336H163.049V16.116H172.783V18.317H163.049V39.242C163.049 40.0893 163.153 40.823 163.359 41.443C163.587 42.0423 163.886 42.5383 164.258 42.931C164.651 43.3237 165.106 43.613 165.622 43.799C166.139 43.985 166.697 44.078 167.296 44.078C168.04 44.078 168.681 43.9747 169.218 43.768C169.756 43.5407 170.221 43.303 170.613 43.055C171.006 42.7863 171.326 42.5487 171.574 42.342C171.822 42.1147 172.019 42.001 172.163 42.001C172.329 42.001 172.494 42.1043 172.659 42.311L173.465 43.613C172.68 44.481 171.678 45.1837 170.458 45.721C169.26 46.2377 168.009 46.496 166.707 46.496Z" fill="white"/>
</svg>
